# xmcd
#
# Track frame offsets:
#	150
#	25311
#	37797
#	57172
#	74158
#	92693
#	105707
#	128959
#	141495
#	158124
#	188788
#	209435
#	234947
#	259108
#	290048
#	310548
#	326379
#	347598
#
# Disc length: 4777 seconds
#
# Revision: 1
# Processed by: cddbd v1.4PL0 Copyright (c) Steve Scherf et al.
# Submitted via: audiograbber 1.80
#
DISCID=0812a712
DTITLE=Дидюля - Лучшее
DYEAR=1900
DGENRE=
TTITLE0=Арабика
TTITLE1=Фламенко
TTITLE2=Водопад
TTITLE3=Ветер
TTITLE4=День рождения
TTITLE5=Испания
TTITLE6=По течению
TTITLE7=Море
TTITLE8=Гром
TTITLE9=Fashion
TTITLE10=Русская
TTITLE11=Полет на Меркурий
TTITLE12=Дорога в Багдад
TTITLE13=День
TTITLE14=Кофе утром
TTITLE15=Жасмин
TTITLE16=Ритмо
TTITLE17=Посвящение
EXTD=
EXTT0=
EXTT1=
EXTT2=
EXTT3=
EXTT4=
EXTT5=
EXTT6=
EXTT7=
EXTT8=
EXTT9=
EXTT10=
EXTT11=
EXTT12=
EXTT13=
EXTT14=
EXTT15=
EXTT16=
EXTT17=
PLAYORDER=
